<svg xmlns="http://www.w3.org/2000/svg" viewBox="0 0 371.02 119.04"><defs><style>.cls-1{fill:#2c1d75;}</style></defs><g id="Layer_2" data-name="Layer 2"><g id="Layer_1-2" data-name="Layer 1"><path class="cls-1" d="M69.49,82.88c0,1.38-.34,1.92-1.83,1.91q-4.78,0-9.58,0v0H18.29v0H2.49c-.35,0-1.4.19-2-.42a2.42,2.42,0,0,1-.43-2.06V37.94a4.24,4.24,0,0,1,2.2-3.72C13.71,27.88,59.68,2.5,64.52.54c.63-.26,2.36-1,3.65-.19A3.7,3.7,0,0,1,69.69,3.7c0,11.51,0,23,0,34.55a3.48,3.48,0,0,1-2,3.4q-11.49,6.1-23,12.21c-2.78,1.46-5.08.09-5.12-3-.07-5,0-10,0-15,0-3.75-2.32-5.07-5.7-3.57A6.25,6.25,0,0,0,30.18,38c.12,14.19.06,28.38.05,42.57h9.48c0-3.65,0-7.31,0-11a3.52,3.52,0,0,1,2-3.45C49.36,62.13,57,58,64.66,54c2.57-1.35,4.78,0,4.8,2.89,0,4.36,0,8.73,0,13.1S69.42,78.57,69.49,82.88Z" transform="translate(0)"/><path class="cls-1" d="M14.34,119a9.44,9.44,0,0,1-3.71-.73,8.7,8.7,0,0,1-3-2,9.45,9.45,0,0,1-2-3.12,11.35,11.35,0,0,1,0-7.85,9.31,9.31,0,0,1,2-3.12,9,9,0,0,1,3-2.05,9.42,9.42,0,0,1,3.72-.72,9.52,9.52,0,0,1,3.93.8,8,8,0,0,1,3,2.39l-2.1,2.15a6.43,6.43,0,0,0-2.13-1.67,5.74,5.74,0,0,0-2.55-.56A6.24,6.24,0,0,0,12,103a5.73,5.73,0,0,0-2,1.39,6.44,6.44,0,0,0-1.3,2.12,8,8,0,0,0,0,5.4,6.39,6.39,0,0,0,1.3,2.13,5.73,5.73,0,0,0,2,1.39,6.42,6.42,0,0,0,2.51.49,5.88,5.88,0,0,0,2.55-.56,6.28,6.28,0,0,0,2.13-1.7l2.1,2.18a8.24,8.24,0,0,1-3,2.37A9.43,9.43,0,0,1,14.34,119Z" transform="translate(0)"/><path class="cls-1" d="M49,119a9.55,9.55,0,0,1-3.78-.74,9.08,9.08,0,0,1-3-2.06,9.37,9.37,0,0,1-2-3.11,11.27,11.27,0,0,1,0-7.82,9.47,9.47,0,0,1,2-3.11,9.05,9.05,0,0,1,3-2,9.9,9.9,0,0,1,7.51,0,9.11,9.11,0,0,1,3,2,9.31,9.31,0,0,1,2,3.11,10.58,10.58,0,0,1,.7,3.91,10.68,10.68,0,0,1-.7,3.93,9.12,9.12,0,0,1-2,3.11,9.24,9.24,0,0,1-3,2A9.34,9.34,0,0,1,49,119Zm0-3.11a6.16,6.16,0,0,0,2.45-.49A5.67,5.67,0,0,0,53.4,114a6.59,6.59,0,0,0,1.29-2.12,8.07,8.07,0,0,0,0-5.37,6.75,6.75,0,0,0-1.29-2.13,5.65,5.65,0,0,0-1.95-1.4,6,6,0,0,0-2.45-.49,5.9,5.9,0,0,0-2.43.49,5.65,5.65,0,0,0-2,1.4,6.43,6.43,0,0,0-1.3,2.13,7.85,7.85,0,0,0,0,5.35A6.39,6.39,0,0,0,44.6,114a5.67,5.67,0,0,0,1.95,1.41A6.19,6.19,0,0,0,49,115.93Z" transform="translate(0)"/><path class="cls-1" d="M79.37,118.76V99.68H82l11,14.69H91.69V99.68h3.22v19.08H92.24l-11-14.69h1.32v14.69Z" transform="translate(0)"/><path class="cls-1" d="M122.53,119a12.16,12.16,0,0,1-3.92-.64,8.42,8.42,0,0,1-3-1.65l1.13-2.76a8.8,8.8,0,0,0,2.6,1.5,8.7,8.7,0,0,0,3.17.6,6.19,6.19,0,0,0,2.22-.33,2.56,2.56,0,0,0,1.25-.88,2.11,2.11,0,0,0,.4-1.27,1.82,1.82,0,0,0-.57-1.4,4.13,4.13,0,0,0-1.49-.85c-.61-.21-1.28-.4-2-.58s-1.49-.4-2.23-.64a9.18,9.18,0,0,1-2-1,4.49,4.49,0,0,1-1.49-1.57,4.92,4.92,0,0,1-.57-2.5,5.48,5.48,0,0,1,.76-2.85,5.36,5.36,0,0,1,2.32-2.07,8.84,8.84,0,0,1,4-.78,11.59,11.59,0,0,1,3.13.44,8.83,8.83,0,0,1,2.7,1.25l-1,2.75a9.31,9.31,0,0,0-2.42-1.13,8.65,8.65,0,0,0-2.4-.37,5.62,5.62,0,0,0-2.19.36,2.63,2.63,0,0,0-1.22.92,2.29,2.29,0,0,0-.39,1.31,1.87,1.87,0,0,0,.56,1.41,4,4,0,0,0,1.48.83c.61.2,1.28.39,2,.58s1.5.41,2.24.65a8.73,8.73,0,0,1,2,.92,4.41,4.41,0,0,1,1.47,1.56,5,5,0,0,1,.56,2.48,5.48,5.48,0,0,1-.76,2.82,5.42,5.42,0,0,1-2.34,2.07A8.91,8.91,0,0,1,122.53,119Z" transform="translate(0)"/><path class="cls-1" d="M157.84,119a7.28,7.28,0,0,1-5.63-2.21q-2-2.2-2-6.38V99.68h3.25v10.63a6.46,6.46,0,0,0,1.16,4.28,4.14,4.14,0,0,0,3.29,1.34,4.08,4.08,0,0,0,3.27-1.34,6.46,6.46,0,0,0,1.15-4.28V99.68h3.2v10.77q0,4.17-2,6.38A7.24,7.24,0,0,1,157.84,119Z" transform="translate(0)"/><path class="cls-1" d="M187.53,118.76V99.68h3.25v16.08h9.15v3Z" transform="translate(0)"/><path class="cls-1" d="M221.67,118.76V102.68h-5.79v-3h14.84v3h-5.8v16.08Z" transform="translate(0)"/><path class="cls-1" d="M247.32,118.76l7.87-19.08h3.2l7.9,19.08h-3.4l-6.78-17.2h1.3l-6.75,17.2Zm3.62-4.41.87-2.78h9.45l.88,2.78Z" transform="translate(0)"/><path class="cls-1" d="M286,118.76V99.68h2.68l11,14.69h-1.32V99.68h3.22v19.08h-2.68l-11-14.69h1.33v14.69Z" transform="translate(0)"/><path class="cls-1" d="M327.29,118.76V102.68h-5.8v-3h14.85v3h-5.8v16.08Z" transform="translate(0)"/><path class="cls-1" d="M361.53,119a12.2,12.2,0,0,1-3.92-.64,8.5,8.5,0,0,1-3-1.65l1.13-2.76a8.8,8.8,0,0,0,2.6,1.5,8.7,8.7,0,0,0,3.17.6,6.19,6.19,0,0,0,2.22-.33,2.56,2.56,0,0,0,1.25-.88,2.11,2.11,0,0,0,.4-1.27,1.82,1.82,0,0,0-.57-1.4,4,4,0,0,0-1.49-.85c-.61-.21-1.28-.4-2-.58s-1.48-.4-2.23-.64a9.18,9.18,0,0,1-2-1,4.58,4.58,0,0,1-1.49-1.57,4.92,4.92,0,0,1-.57-2.5,5.48,5.48,0,0,1,.76-2.85,5.36,5.36,0,0,1,2.32-2.07,8.91,8.91,0,0,1,4-.78,11.47,11.47,0,0,1,3.12.44,8.83,8.83,0,0,1,2.7,1.25l-1,2.75a9.31,9.31,0,0,0-2.42-1.13,8.65,8.65,0,0,0-2.4-.37,5.62,5.62,0,0,0-2.19.36,2.69,2.69,0,0,0-1.22.92,2.29,2.29,0,0,0-.39,1.31,1.87,1.87,0,0,0,.56,1.41,4,4,0,0,0,1.48.83c.61.2,1.29.39,2,.58s1.49.41,2.23.65a8.73,8.73,0,0,1,2,.92,4.33,4.33,0,0,1,1.47,1.56,4.87,4.87,0,0,1,.56,2.48,5.48,5.48,0,0,1-.76,2.82,5.42,5.42,0,0,1-2.34,2.07A8.91,8.91,0,0,1,361.53,119Z" transform="translate(0)"/><path class="cls-1" d="M88.26,84.26a12.39,12.39,0,0,1-6.92-4.17,14.33,14.33,0,0,1-2.71-7A95.05,95.05,0,0,1,78,60.64a107.4,107.4,0,0,1,.48-11.58,17.58,17.58,0,0,1,2.09-6.93,10.33,10.33,0,0,1,5.31-4.5,32.17,32.17,0,0,1,10-1.85V60.64q0,4.83.1,6.35a10.34,10.34,0,0,0,.57,3.42,2.25,2.25,0,0,0,1.61,1.42,11.5,11.5,0,0,0,3,.29h1.33V85.5h-1.33A52.81,52.81,0,0,1,88.26,84.26Zm18.22-23.62q0-4.85-.09-6.46a11.41,11.41,0,0,0-.57-3.46,2.29,2.29,0,0,0-1.52-1.47,13.52,13.52,0,0,0-3.13-.28H99.84V35.59h1.33a50.56,50.56,0,0,1,12.9,1.28A12.67,12.67,0,0,1,121,41.09a14.5,14.5,0,0,1,2.7,7.07,96.13,96.13,0,0,1,.62,12.48q0,7.49-.43,11.62a16,16,0,0,1-2,6.78,10.89,10.89,0,0,1-5.41,4.42,32.47,32.47,0,0,1-10,1.85Z" transform="translate(0)"/><path class="cls-1" d="M170.91,84.26A12.45,12.45,0,0,1,164,80.09a14.42,14.42,0,0,1-2.7-7,93.31,93.31,0,0,1-.62-12.43,110.59,110.59,0,0,1,.47-11.58,17.58,17.58,0,0,1,2.09-6.93,10.33,10.33,0,0,1,5.31-4.5,32.3,32.3,0,0,1,10-1.85V60.64q0,4.83.09,6.35a10.34,10.34,0,0,0,.57,3.42,2.29,2.29,0,0,0,1.62,1.42,11.47,11.47,0,0,0,3,.29h1.33V85.5h-1.33A52.77,52.77,0,0,1,170.91,84.26Zm18.21-23.62q0-4.85-.09-6.46a10.82,10.82,0,0,0-.57-3.46,2.27,2.27,0,0,0-1.52-1.47,13.52,13.52,0,0,0-3.13-.28h-1.33V35.59h1.33a50.65,50.65,0,0,1,12.91,1.28,12.68,12.68,0,0,1,6.92,4.22,14.6,14.6,0,0,1,2.71,7.07A96.48,96.48,0,0,1,207,60.64q0,7.49-.42,11.62a16.34,16.34,0,0,1-2,6.78,11,11,0,0,1-5.41,4.42,32.6,32.6,0,0,1-10,1.85Z" transform="translate(0)"/><path class="cls-1" d="M216.36,36.35h17.55V84.74H216.36Zm27.42,25.52c0-3.35,0-5.57-.1-6.64a17.19,17.19,0,0,0-.47-3.51,1.87,1.87,0,0,0-1.33-1.19,13.7,13.7,0,0,0-3-.24h-.94V38.43a15.82,15.82,0,0,1,9.67-2.75q8.55,0,11.48,5.22a15.31,15.31,0,0,1,1.81,5.55,58.25,58.25,0,0,1,.47,8V84.74H243.78Z" transform="translate(0)"/><path class="cls-1" d="M272.15,36.35H289.7V84.74H272.15Z" transform="translate(0)"/><path class="cls-1" d="M289.7,15.38V29.24a.55.55,0,0,1-.55.55H272.71a.56.56,0,0,1-.56-.55V28.17a.58.58,0,0,1,.21-.44L288.8,14.94A.55.55,0,0,1,289.7,15.38Z" transform="translate(0)"/><path class="cls-1" d="M301.56,81.75q-3.12-3.66-3.13-11.06a32.49,32.49,0,0,1,.67-7.35,8.51,8.51,0,0,1,6.73-6.83,31.71,31.71,0,0,1,7.5-.71l8,.19v8.44h-.95a23.94,23.94,0,0,0-2.85.1c-1.26.06-1.93.66-2,1.8a19.23,19.23,0,0,0-.09,2.37,12.11,12.11,0,0,0,.14,2.18,2.76,2.76,0,0,0,.52,1.24,1.92,1.92,0,0,0,1.42.76,21.3,21.3,0,0,0,2.85.19h.95v9.67a11.15,11.15,0,0,1-4.41,2.14,26.07,26.07,0,0,1-5.65.52Q304.7,85.4,301.56,81.75Zm23.72-27a21.94,21.94,0,0,0-.19-3.51A2,2,0,0,0,324,49.72a9.2,9.2,0,0,0-3.23-.66c-1-.06-3-.09-6.17-.09s-5.85.12-8.44.37l-5,.29V37.29a103.17,103.17,0,0,1,19.26-1.7,54.06,54.06,0,0,1,12.48,1.13,13.54,13.54,0,0,1,6.78,3.61,11.64,11.64,0,0,1,2.61,5.79,59.79,59.79,0,0,1,.62,9.77V84.74H325.28Z" transform="translate(0)"/><path class="cls-1" d="M371,14.79V84.74H353.47V27.59a.58.58,0,0,1,.21-.44l16.44-12.8a.53.53,0,0,1,.34-.11A.55.55,0,0,1,371,14.79Z" transform="translate(0)"/><path class="cls-1" d="M151.27,14.79V84.74H133.71V27.59a.56.56,0,0,1,.22-.44l16.44-12.8a.52.52,0,0,1,.33-.11A.55.55,0,0,1,151.27,14.79Z" transform="translate(0)"/></g></g></svg>